<?xml version="1.0" encoding="UTF-8"?>
<svg xmlns="http://www.w3.org/2000/svg" viewBox="0 0 100 100">
<path style=" stroke:none;fill-rule:nonzero;fill:rgb(0%,0%,0%);fill-opacity:1;" d="M 13.128906 100 L 25.046875 100 L 31.960938 71.898438 L 56.914062 71.898438 L 50.078125 100 L 62 100 L 68.910156 71.898438 L 93.386719 71.898438 L 93.386719 62.070312 L 71.296875 62.070312 L 77.253906 38.128906 L 93.386719 38.128906 L 93.386719 28.296875 L 79.640625 28.296875 L 86.550781 0 L 74.554688 0 L 67.640625 28.296875 L 42.609375 28.296875 L 49.523438 0 L 37.601562 0 L 30.691406 28.296875 L 6.613281 28.296875 L 6.613281 38.128906 L 28.308594 38.128906 L 22.425781 62.070312 L 6.613281 62.070312 L 6.613281 71.898438 L 20.042969 71.898438 Z M 40.226562 38.128906 L 65.253906 38.128906 L 59.296875 62.070312 L 34.34375 62.070312 Z M 40.226562 38.128906 "/>
</svg>
